<?xml version="1.0" encoding="utf-8"?>
<!-- Generator: Adobe Illustrator 16.0.0, SVG Export Plug-In . SVG Version: 6.00 Build 0)  -->
<!DOCTYPE svg PUBLIC "-//W3C//DTD SVG 1.1//EN" "http://www.w3.org/Graphics/SVG/1.1/DTD/svg11.dtd">
<svg version="1.1" id="Icons" xmlns="http://www.w3.org/2000/svg" xmlns:xlink="http://www.w3.org/1999/xlink" x="0px" y="0px"
	 width="64px" height="64px" viewBox="0 0 64 64" enable-background="new 0 0 64 64" xml:space="preserve">
<g>
	<rect x="16" y="63" fill="#c1cad7" width="0.04" height="0.04"/>
	<rect x="61" y="59" fill="#7585a3" width="0.08" height="0.08"/>
	<rect x="60" y="56" fill="#404972" width="0.04" height="0.04"/>
	<rect x="55" y="55" fill="#404972" width="0.06" height="0.06"/>
	<rect x="38" y="54" fill="#404972" width="0.06" height="0.06"/>
	<rect x="11" y="54" fill="#c1cad7" width="0.08" height="0.08"/>
	<rect x="29" y="51" fill="#7585a3" width="0.04" height="0.04"/>
	<rect x="59" y="50" fill="#7585a3" width="0.06" height="0.06"/>
	<rect x="53" y="49" fill="#6c7bac" width="0.08" height="0.08"/>
	<rect x="34" y="47" fill="#7585a3" width="0.04" height="0.04"/>
	<rect x="2" y="45" fill="#404972" width="0.06" height="0.06"/>
	<rect x="43" y="44" fill="#c1cad7" width="0.08" height="0.08"/>
	<rect x="29" y="43" fill="#7585a3" width="0.06" height="0.06"/>
	<rect x="18" y="43" fill="#7585a3" width="0.04" height="0.04"/>
	<rect x="51" y="42" fill="#7585a3" width="0.06" height="0.06"/>
	<rect x="16" y="42" fill="#404972" width="0.04" height="0.04"/>
	<rect x="46" y="40" fill="#404972" width="0.08" height="0.08"/>
	<rect x="59" y="38" fill="#404972" width="0.04" height="0.04"/>
	<rect x="44" y="37" fill="#E9E5E1" width="0.06" height="0.06"/>
	<rect x="61" y="36" fill="#7585a3" width="0.06" height="0.06"/>
	<rect x="37" y="33" fill="#404972" width="0.04" height="0.04"/>
	<rect x="33" y="33" fill="#6c7bac" width="0.06" height="0.06"/>
	<rect x="16" y="31" fill="#404972" width="0.04" height="0.04"/>
	<rect x="11" y="31" fill="#9caec9" width="0.08" height="0.08"/>
	<rect x="38" y="28" fill="#404972" width="0.08" height="0.08"/>
	<rect x="49" y="27" fill="#6c7bac" width="0.04" height="0.04"/>
	<rect x="46" y="26" fill="#c1cad7" width="0.04" height="0.04"/>
	<rect x="19" y="26" fill="#7585a3" width="0.08" height="0.08"/>
	<rect x="36" y="24" fill="#c1cad7" width="0.04" height="0.04"/>
	<rect x="58" y="23" fill="#404972" width="0.06" height="0.06"/>
	<rect x="52" y="22" fill="#c1cad7" width="0.06" height="0.06"/>
	<rect x="3" y="16" fill="#6c7bac" width="0.04" height="0.04"/>
	<rect x="51" y="15" fill="#6c7bac" width="0.04" height="0.04"/>
	<rect x="32" y="15" fill="#404972" width="0.04" height="0.04"/>
	<rect x="1" y="14" fill="#c1cad7" width="0.06" height="0.06"/>
	<rect x="60" y="13" fill="#404972" width="0.08" height="0.08"/>
	<rect x="36" y="13" fill="#404972" width="0.04" height="0.04"/>
	<rect x="24" y="13" fill="#c1cad7" width="0.06" height="0.06"/>
	<rect x="33" y="12" fill="#7585a3" width="0.04" height="0.04"/>
	<rect x="45" y="11" fill="#c1cad7" width="0.04" height="0.04"/>
	<rect x="42" y="5" fill="#9caec9" width="0.06" height="0.06"/>
	<rect x="38" y="5" fill="#6c7bac" width="0.06" height="0.06"/>
	<rect x="18" y="5" fill="#7585a3" width="0.08" height="0.08"/>
	<rect x="44" y="1" fill="#404972" width="0.04" height="0.04"/>
	<rect x="13" y="1" fill="#6c7bac" width="0.06" height="0.06"/>
	<rect x="3" y="1" fill="#9caec9" width="0.08" height="0.08"/>
</g>
</svg>
